<?xml version="1.0" encoding="UTF-8" standalone="no"?>
<!DOCTYPE svg PUBLIC "-//W3C//DTD SVG 1.1//EN" "http://www.w3.org/Graphics/SVG/1.1/DTD/svg11.dtd">
<svg width="100%" height="100%" viewBox="0 0 24 24" version="1.1" xmlns="http://www.w3.org/2000/svg" xmlns:xlink="http://www.w3.org/1999/xlink" xml:space="preserve" xmlns:serif="http://www.serif.com/" style="fill-rule:evenodd;clip-rule:evenodd;stroke-linecap:round;stroke-linejoin:round;">
    <path d="M22,7C22,4.24 19.76,2 17,2L7,2C4.24,2 2,4.24 2,7L2,17C2,19.76 4.24,22 7,22L17,22C19.76,22 22,19.76 22,17L22,7Z" style="fill:none;stroke:white;stroke-width:1px;"/>
    <path d="M16,11.37C16.029,11.564 16.043,11.76 16.043,11.957C16.043,14.151 14.238,15.957 12.043,15.957C9.849,15.957 8.043,14.151 8.043,11.957C8.043,9.762 9.849,7.957 12.043,7.957C12.24,7.957 12.436,7.971 12.63,8C14.368,8.258 15.742,9.632 16,11.37Z" style="fill:none;fill-rule:nonzero;stroke:white;stroke-width:1px;"/>
    <path d="M17.5,6.5L17.51,6.5" style="fill:none;fill-rule:nonzero;stroke:white;stroke-width:1px;"/>
</svg>
